<svg width="222" height="36" viewBox="0 0 222 36" fill="none" xmlns="http://www.w3.org/2000/svg">
<path d="M5.0094 30.95C1.6698 27.9637 0 23.5496 0 17.7192C0 11.8888 1.7022 7.4748 5.1121 4.4885C8.5165 1.5021 13.1747 0.00610352 19.0811 0.00610352C21.5344 0.00610352 23.7014 0.182501 25.5873 0.546501C27.4733 0.904901 29.2782 1.5135 31.002 2.3781V11.8376C28.3217 10.5009 25.2793 9.8297 21.8749 9.8297C18.8757 9.8297 16.6602 10.4269 15.2335 11.6215C13.8015 12.816 13.0882 14.8467 13.0882 17.7192C13.0882 20.4951 13.7907 22.503 15.2011 23.743C16.6061 24.9887 18.8325 25.6087 21.8803 25.6087C25.1064 25.6087 28.1704 24.8181 31.0777 23.2425V33.1399C27.8516 34.6701 23.8311 35.4323 19.0162 35.4323C13.0125 35.4323 8.349 33.9363 5.0094 30.95Z" fill="currentColor"/>
<path d="M33.9854 17.713C33.9854 11.9281 35.5525 7.5312 38.6867 4.5164C41.821 1.5017 46.544 0 52.8605 0C59.2215 0 63.9766 1.5074 67.1376 4.5164C70.2936 7.5255 71.8716 11.9281 71.8716 17.713C71.8716 29.5218 65.5336 35.4261 52.8605 35.4261C40.2754 35.4318 33.9854 29.5274 33.9854 17.713ZM57.3946 23.7425C58.3246 22.4968 58.7896 20.4889 58.7896 17.7187C58.7896 14.9941 58.3246 12.9975 57.3946 11.7291C56.4656 10.4606 54.9525 9.8292 52.8605 9.8292C50.8185 9.8292 49.3378 10.4663 48.4299 11.7291C47.5221 12.9975 47.0681 14.9941 47.0681 17.7187C47.0681 20.4946 47.5221 22.5025 48.4299 23.7425C49.3378 24.9883 50.8125 25.6083 52.8605 25.6083C54.9525 25.6083 56.4596 24.9826 57.3946 23.7425Z" fill="currentColor"/>
<path d="M74.8535 0.716698H86.8445L87.1855 3.2991C88.5035 2.3435 90.1845 1.5529 92.2265 0.932796C94.2695 0.312796 96.3825 0 98.5655 0C102.608 0 105.559 1.0523 107.423 3.1569C109.287 5.2616 110.217 8.5095 110.217 12.9122V34.7151H97.4095V14.2717C97.4095 12.7416 97.0795 11.6437 96.4205 10.9725C95.7615 10.3013 94.6585 9.9714 93.1135 9.9714C92.1625 9.9714 91.1835 10.1989 90.1845 10.654C89.1845 11.109 88.3465 11.6949 87.6605 12.4116V34.7151H74.8535V0.716698Z" fill="currentColor"/>
<path d="M110.254 0.716797H123.607L129.74 20.654L135.874 0.716797H149.227L136.484 34.7152H122.991L110.254 0.716797Z" fill="currentColor"/>
<path d="M153.259 31.7913C149.411 28.7538 147.612 23.4809 147.612 17.787C147.612 12.241 149.044 7.6734 152.313 4.5164C155.582 1.3595 160.565 0 166.855 0C172.642 0 177.192 1.4107 180.516 4.232C183.834 7.0534 185.498 10.9043 185.498 15.7791V21.7346H161.143C161.748 23.5036 162.515 24.7835 164.401 25.5741C166.287 26.3648 168.919 26.7573 172.286 26.7573C174.296 26.7573 176.349 26.5923 178.435 26.2567C179.17 26.1373 180.381 25.9496 181.018 25.8074V34.0723C177.835 34.9824 173.593 35.4375 168.811 35.4375C162.375 35.4318 157.106 34.8288 153.259 31.7913ZM172.042 14.4196C172.042 12.7359 170.2 9.1125 166.498 9.1125C163.158 9.1125 160.954 12.679 160.954 14.4196H172.042Z" fill="currentColor"/>
<path d="M195.554 17.4287L183.562 0.716797H197.461L221.989 34.7152H207.956L202.503 27.1101L197.051 34.7152H183.081L195.554 17.4287Z" fill="currentColor"/>
<path d="M207.647 0.716797H221.481L210.863 15.6028L203.838 6.06369L207.647 0.716797Z" fill="currentColor"/>
</svg>
